# xmcd
#
# Track frame offsets:
#	150
#	13551
#	26922
#	40813
#	53871
#	68544
#	82815
#	96263
#	106245
#	121020
#	133925
#	147624
#	161262
#	173821
#	189055
#	202333
#	217967
#	230889
#	242919
#	256825
#	270262
#	284832
#	295592
#	307551
#
# Disc length: 4286
#
# Revision: 2
# Processed by: cddbd v1.5.1PL0 Copyright (c) Steve Scherf et al.
# Submitted via: CDmax 1.8
# Normalized: r1:TDELIM( - )
#
DISCID=5010bc18
DTITLE=Various Artist - Ladies Sing The Blues CD1
DYEAR=1900
DGENRE=Blues
TTITLE0=Bessie Smith - The Yellow Dog Blues
TTITLE1=Bessie Smith - Reckless Blues
TTITLE2=Bessie Smith - The St. Louis Blues
TTITLE3=Ethel Waters - My Handy Man
TTITLE4=Clara Smith - Shipwrecked Blues
TTITLE5=Martha Copeland - Nobody Rocks Me Like My Baby Do
TTITLE6=Pearl Dickson - Little Rock Blues
TTITLE7=Lottie Beaman - Rolling Log Blues
TTITLE8=Memphis Minnie - Chicksaw Train Blues
TTITLE9=Memphis Minnie - New Bumble Bee Blues
TTITLE10=Memphis Minnie - I'm A Bad Luck Woman
TTITLE11=Lil Johnson - That Bonus Don't Gone Through
TTITLE12=Lucille Bogan - Reckless Woman
TTITLE13=Alice Moore - My Man Blues
TTITLE14=Hattie McDaniel - I Thought I'd Do It
TTITLE15=Mildred Bailey - Down Hearted Blues
TTITLE16=Merline Johnson - Pallet On The Floor
TTITLE17=Georgia White - The Blues Ain't Nothing But?
TTITLE18=Tina Mayberry - Mailman Blues
TTITLE19=Lil Green - Why Don't You Do Right
TTITLE20=Wee Bea Booze - Uncle Sam Come And Get Him
TTITLE21=Billie Holiday - How Long Daddy
TTITLE22=Billie Holiday - Billie's Blues
TTITLE23=Billie Holiday - Long Gone Blues
EXTD=
EXTT0=
EXTT1=
EXTT2=
EXTT3=
EXTT4=
EXTT5=
EXTT6=
EXTT7=
EXTT8=
EXTT9=
EXTT10=
EXTT11=
EXTT12=
EXTT13=
EXTT14=
EXTT15=
EXTT16=
EXTT17=
EXTT18=
EXTT19=
EXTT20=
EXTT21=
EXTT22=
EXTT23=
PLAYORDER=
